<svg id="Layer_1" data-name="Layer 1" xmlns="http://www.w3.org/2000/svg" viewBox="0 0 456.54 518"><defs><style>.cls-1{fill:#fff;}.cls-2{fill:none;stroke:#fff;stroke-linecap:round;stroke-miterlimit:10;stroke-width:30px;}</style></defs><title>Logo</title><polygon class="cls-1" points="441.51 143.01 439.14 381 371.54 419.98 371.54 327 371.54 185 375.06 182.86 440.54 143 441.51 143.01"/><polygon class="cls-1" points="294.12 54.24 223.45 95.11 83.54 176 81.54 174 15.95 136.05 226.59 15 294.12 54.24"/><polygon class="cls-1" points="227.54 408 227.54 503 15 381.95 15.34 292.99 17.54 293 82.49 328.91 225.54 408 227.54 408"/><line class="cls-2" x1="15" y1="381.95" x2="227.54" y2="503"/><polyline class="cls-2" points="439.14 381 371.54 419.98 227.54 503"/><line class="cls-2" x1="227.54" y1="408" x2="227.54" y2="503"/><polyline class="cls-2" points="441.54 140 441.51 143.01 439.14 381"/><polyline class="cls-2" points="15.95 136.05 15.34 292.99 15 381.95"/><line class="cls-2" x1="81.54" y1="174" x2="15.95" y2="136.05"/><polyline class="cls-2" points="440.54 143 375.06 182.86 371.54 185"/><line class="cls-2" x1="15.95" y1="136.05" x2="226.59" y2="15"/><polyline class="cls-2" points="438.18 137.95 294.12 54.24 226.59 15"/><line class="cls-2" x1="83.54" y1="176" x2="83.54" y2="327"/><polyline class="cls-2" points="225.54 408 82.49 328.91 17.54 293"/><polyline class="cls-2" points="371.54 185 371.54 327 371.54 419.98 371.54 420"/><line class="cls-2" x1="227.54" y1="408" x2="371.54" y2="327"/><polyline class="cls-2" points="83.54 176 223.45 95.11 294.12 54.24 294.54 54"/><polyline class="cls-2" points="374.54 182 224.55 98 224.54 98"/><polyline class="cls-2" points="225.54 247 224.55 98 224.54 97"/><line class="cls-2" x1="85.54" y1="327" x2="222.54" y2="248"/><line class="cls-2" x1="371.54" y1="327" x2="225.54" y2="247"/></svg>